#!OML:ASF X:\für Bonn\!DataBase\2005_08_12_Daniel\c3d\Daniel.ASF
:FULLY-SPECIFIED
:DEGREES
18
root -16.7582 18.3998 -1.154 484.094 93.9264 -2034.08
lowerback 9.16399 -1.24805 5.54062
upperback 1.29621 -1.06788 -0.0182777
thorax -3.89432 -0.590264 -3.0056
lowerneck -6.27417 2.10358 -6.23695
upperneck -1.44784 3.27231 0.878155
head 0.486037 1.69097 1.39559
rclavicle 5.46658e-015 -2.48481e-015
rhumerus -115.109 -25.3782 66.7066
rradius 15.6807
rwrist 182.164
rhand -18.3522 21.649
rfingers 7.12502
rthumb 7.9304 -8.18225
lclavicle 5.46658e-015 -2.48481e-015
lhumerus -70.3476 9.88687 48.5733
lradius 16.3015
lwrist -58.9109
lhand -8.88419 -17.0062
lfingers 7.12502
lthumb 17.0579 12.2649
rfemur 2.65331 1.81339 23.4832
rtibia 38.9895
rfoot 18.3368 -4.86095
rtoes -6.93769
lfemur -4.94884 -5.32445 -19.4772
ltibia 53.3883
lfoot 11.1312 -6.6825
ltoes -9.58087
19
root -16.4413 18.5932 -1.15475 486.916 93.921 -2031.16
lowerback 8.20457 -1.15144 5.29979
upperback 1.09451 -1.02707 -0.0313861
thorax -3.56113 -0.566755 -2.89877
lowerneck -5.42 2.15487 -6.90686
upperneck -0.806998 3.30824 1.38548
head 0.524782 1.69566 1.66994
rclavicle 5.23673e-015 6.95746e-015
rhumerus -112.375 -25.1632 64.3257
rradius 14.9689
rwrist 180.344
rhand -19.8972 21.9241
rfingers 7.12502
rthumb 6.43906 -7.95807
lclavicle 5.23673e-015 6.95746e-015
lhumerus -71.2645 8.61784 48.1375
lradius 16.4481
lwrist -57.1088
lhand -9.56637 -16.9132
lfingers 7.12502
lthumb 16.4012 12.4134
rfemur 2.87323 2.33734 23.651
rtibia 38.8985
rfoot 22.2138 -5.4793
rtoes -6.90541
lfemur -4.43254 -5.39259 -19.8637
ltibia 53.0549
lfoot 14.7362 -6.99166
ltoes -10.6605
20
root -16.1496 18.7797 -1.15545 489.893 93.9085 -2028.11
lowerback 7.53674 -1.06977 5.04816
upperback 0.910921 -0.983081 -0.0575727
thorax -3.37092 -0.543797 -2.79587
lowerneck -4.7154 2.17115 -7.53089
upperneck -0.311569 3.30095 1.76603
head 0.546738 1.6809 1.89808
rclavicle 2.34814e-015 1.68967e-015
rhumerus -107.895 -25.5873 57.9836
rradius 13.9098
rwrist 174.712
rhand -21.3263 22.1141
rfingers 7.12502
rthumb 5.05928 -7.80549
lclavicle 2.34814e-015 1.68967e-015
lhumerus -72.0396 7.78402 47.046
lradius 16.269
lwrist -55.94
lhand -10.4 -16.7026
lfingers 7.12502
lthumb 15.5985 12.6884
rfemur 2.57793 2.55059 23.7012
rtibia 39.5385
rfoot 25.207 -5.31662
rtoes -7.26683
lfemur -4.35352 -5.28875 -20.1907
ltibia 53.2573
lfoot 17.548 -7.67477
ltoes -11.3158
21
root -15.8723 18.9652 -1.15775 492.87 93.9078 -2025.07
lowerback 7.17699 -1.00203 4.80562
upperback 0.707483 -0.934383 -0.0923463
thorax -3.37328 -0.522751 -2.70323
lowerneck -4.23169 2.17693 -8.05966
upperneck 0.188472 3.28927 2.06176
head 0.610745 1.66316 2.08778
rclavicle 2.04375e-014 8.74653e-015
rhumerus -104.405 -25.2843 53.3944
rradius 13.12
rwrist 170.707
rhand -23.0361 22.2617
rfingers 7.12502
rthumb 3.40828 -7.69084
lclavicle 2.04375e-014 8.74653e-015
lhumerus -72.8249 7.39322 45.0963
lradius 15.9849
lwrist -55.9377
lhand -11.1753 -16.449
lfingers 7.12502
lthumb 14.8516 12.9987
rfemur 1.93576 2.57351 23.7005
rtibia 40.6782
rfoot 27.4471 -4.72916
rtoes -7.48671
lfemur -4.59716 -4.99462 -20.4351
ltibia 53.8927
lfoot 19.5115 -8.77562
ltoes -11.8262
22
root -15.606 19.1475 -1.15854 495.514 93.9254 -2022.34
lowerback 7.06914 -0.956573 4.56037
upperback 0.595475 -0.899933 -0.119534
thorax -3.42277 -0.506554 -2.59741
lowerneck -4.16085 2.15715 -8.3894
upperneck 0.675374 3.27212 2.18947
head 0.747923 1.64291 2.19517
rclavicle 1.16848e-014 -2.5842e-015
rhumerus -102.417 -24.6434 51.3635
rradius 12.7163
rwrist 168.848
rhand -24.7819 22.5471
rfingers 7.12502
rthumb 1.72225 -7.42572
lclavicle 1.16848e-014 -2.5842e-015
lhumerus -73.4963 7.55674 42.2745
lradius 15.5706
lwrist -57.2295
lhand -11.812 -16.1994
lfingers 7.12502
lthumb 14.2382 13.2925
rfemur 1.11455 2.44659 23.7022
rtibia 42.095
rfoot 29.0016 -4.06731
rtoes -6.62933
lfemur -5.02815 -4.6888 -20.6427
ltibia 54.8295
lfoot 20.8464 -9.87477
ltoes -11.9096
23
root -15.3466 19.3231 -1.15946 498.042 93.9401 -2019.75
lowerback 7.0799 -0.925643 4.32055
upperback 0.567375 -0.879096 -0.163764
thorax -3.45319 -0.494529 -2.51024
lowerneck -4.3288 2.11864 -8.43651
upperneck 1.07056 3.24232 2.12674
head 0.905162 1.61785 2.19192
rclavicle -1.21569e-014 2.78299e-015
rhumerus -101.568 -23.8917 51.3275
rradius 12.5624
rwrist 168.596
rhand -26.2677 22.9994
rfingers 7.12502
rthumb 0.287208 -6.98011
lclavicle -1.21569e-014 2.78299e-015
lhumerus -74.0858 8.01247 38.9779
lradius 15.1371
lwrist -59.5522
lhand -12.1647 -16.0697
lfingers 7.12502
lthumb 13.8983 13.4459
rfemur 0.174718 2.25931 23.6942
rtibia 43.5724
rfoot 29.9183 -3.57545
rtoes -5.19721
lfemur -5.61515 -4.3498 -20.8492
ltibia 55.8946
lfoot 21.6264 -10.7894
ltoes -11.9266
24
root -15.0923 19.4886 -1.16168 499.791 93.966 -2017.9
lowerback 7.18604 -0.910965 4.13163
upperback 0.642171 -0.871241 -0.1958
thorax -3.43194 -0.485995 -2.43744
lowerneck -4.67417 2.06726 -8.43142
upperneck 1.38454 3.21179 1.99536
head 1.06963 1.59412 2.15918
rclavicle 4.50993e-015 4.37326e-015
rhumerus -100.387 -23.3754 50.2542
rradius 12.2506
rwrist 167.239
rhand -27.0583 23.4486
rfingers 7.12502
rthumb -0.476426 -6.53064
lclavicle 4.50993e-015 4.37326e-015
lhumerus -74.6921 8.73837 35.305
lradius 14.7591
lwrist -62.7573
lhand -12.2085 -16.0101
lfingers 7.12502
lthumb 13.8561 13.5084
rfemur -0.74119 1.92656 23.7047
rtibia 44.9839
rfoot 30.2951 -3.0773
rtoes -4.6635
lfemur -6.22829 -3.82555 -20.9231
ltibia 56.9552
lfoot 22.1102 -11.4295
ltoes -11.3788
25
root -14.8408 19.6433 -1.16245 501.537 93.963 -2016.02
lowerback 7.30676 -0.907793 3.91691
upperback 0.836165 -0.881765 -0.253266
thorax -3.29656 -0.481747 -2.37527
lowerneck -5.06582 2.00233 -8.4014
upperneck 1.51982 3.16556 1.86659
head 1.18649 1.56702 2.12084
rclavicle -7.22458e-015 -1.80894e-014
rhumerus -99.219 -23.0334 48.676
rradius 11.8626
rwrist 165.224
rhand -27.0932 23.9174
rfingers 7.12502
rthumb -0.510119 -6.06177
lclavicle -7.22458e-015 -1.80894e-014
lhumerus -75.2977 9.82562 30.9629
lradius 14.2828
lwrist -67.0842
lhand -12.0422 -16.2143
lfingers 7.12502
lthumb 14.0163 13.2931
rfemur -1.56998 1.55889 23.701
rtibia 46.2035
rfoot 30.3295 -2.70443
rtoes -5.02091
lfemur -6.80146 -3.10693 -20.9226
ltibia 57.8708
lfoot 22.4727 -11.5098
ltoes -10.4078
26
root -14.5918 19.7835 -1.16349 502.895 93.9695 -2014.49
lowerback 7.44677 -0.922097 3.70769
upperback 1.11878 -0.912982 -0.288805
thorax -3.08134 -0.484597 -2.29171
lowerneck -5.35129 1.9518 -8.42181
upperneck 1.42074 3.1297 1.76465
head 1.20789 1.55104 2.09457
rclavicle 2.98177e-015 6.75868e-015
rhumerus -99.6538 -22.6871 50.4513
rradius 11.8102
rwrist 166.183
rhand -26.7752 24.5308
rfingers 7.12502
rthumb -0.203005 -5.4488
lclavicle 2.98177e-015 6.75868e-015
lhumerus -76.0484 11.2731 25.9129
lradius 13.6961
lwrist -72.4574
lhand -11.6944 -16.5558
lfingers 7.12502
lthumb 14.3515 12.9281
rfemur -2.26257 1.16958 23.7239
rtibia 47.1673
rfoot 30.0401 -2.92131
rtoes -5.42815
lfemur -7.27513 -2.34024 -20.8912
ltibia 58.5849
lfoot 22.7022 -11.054
ltoes -9.64348
27
root -14.3439 19.9091 -1.16406 504.417 93.9945 -2012.74
lowerback 7.57269 -0.918561 3.51615
upperback 1.50075 -0.919589 -0.358155
thorax -2.75469 -0.471897 -2.25644
lowerneck -5.57553 1.89008 -8.40094
upperneck 1.16293 3.0686 1.68232
head 1.16892 1.52722 2.06288
rclavicle 6.8208e-015 -1.78906e-015
rhumerus -100.159 -22.4275 51.8838
rradius 11.8046
rwrist 166.813
rhand -25.981 25.0438
rfingers 7.12502
rthumb 0.564119 -4.93517
lclavicle 6.8208e-015 -1.78906e-015
lhumerus -76.8065 12.6744 21.0973
lradius 13.1857
lwrist -77.5575
lhand -11.1062 -16.9727
lfingers 7.12502
lthumb 14.9182 12.4701
rfemur -2.80819 0.743446 23.732
rtibia 47.8469
rfoot 29.5357 -3.47245
rtoes -5.99651
lfemur -7.62613 -1.48935 -20.8729
ltibia 59.0649
lfoot 22.7465 -10.3713
ltoes -9.45588
